<svg xmlns="http://www.w3.org/2000/svg" xmlns:xlink="http://www.w3.org/1999/xlink" width="500" zoomAndPan="magnify" viewBox="0 0 375 374.999991" height="500" preserveAspectRatio="xMidYMid meet" version="1.0"><defs><clipPath id="c5203317b2"><path d="M 54 109 L 375 109 L 375 374.796875 L 54 374.796875 Z M 54 109 " clip-rule="nonzero"/></clipPath><clipPath id="f98b9cc545"><path d="M 2.421875 125 L 51 125 L 51 133 L 2.421875 133 Z M 2.421875 125 " clip-rule="nonzero"/></clipPath><clipPath id="de78e50eda"><path d="M 2.421875 58 L 323 58 L 323 324 L 2.421875 324 Z M 2.421875 58 " clip-rule="nonzero"/></clipPath></defs><path fill="#ffffff" d="M 321.191406 113.96875 L 361.574219 113.429688 L 370.304688 121.003906 L 370.851562 366.628906 L 364.300781 371.496094 L 64.703125 371.496094 L 57.066406 362.839844 L 56.519531 320.640625 L 302.636719 320.101562 C 302.636719 320.101562 313.335938 319.707031 315.734375 317.394531 C 319.957031 313.324219 321.191406 294.671875 321.191406 294.671875 Z M 321.191406 113.96875 " fill-opacity="1" fill-rule="nonzero"/><g clip-path="url(#c5203317b2)"><path fill="#17407a" d="M 360.761719 374.785156 L 69.039062 374.785156 C 61.097656 374.785156 54.636719 368.332031 54.636719 360.394531 L 54.636719 334.507812 C 54.636719 332.683594 56.121094 331.199219 57.949219 331.199219 C 59.78125 331.199219 61.261719 332.683594 61.261719 334.507812 L 61.261719 360.394531 C 61.261719 364.679688 64.753906 368.164062 69.039062 368.164062 L 360.761719 368.164062 C 365.050781 368.164062 368.539062 364.679688 368.539062 360.394531 L 368.539062 123.492188 C 368.539062 119.207031 365.050781 115.722656 360.761719 115.722656 L 332.527344 115.722656 C 330.699219 115.722656 329.214844 114.242188 329.214844 112.414062 C 329.214844 110.585938 330.699219 109.105469 332.527344 109.105469 L 360.761719 109.105469 C 368.703125 109.105469 375.164062 115.558594 375.164062 123.492188 L 375.164062 360.394531 C 375.164062 368.328125 368.703125 374.785156 360.761719 374.785156 Z M 360.761719 374.785156 " fill-opacity="1" fill-rule="nonzero"/></g><path fill="#17407a" d="M 371.851562 183.226562 L 319.65625 183.226562 C 317.824219 183.226562 316.34375 181.746094 316.34375 179.917969 C 316.34375 178.089844 317.824219 176.609375 319.65625 176.609375 L 371.851562 176.609375 C 373.683594 176.609375 375.164062 178.089844 375.164062 179.917969 C 375.164062 181.746094 373.683594 183.226562 371.851562 183.226562 Z M 371.851562 183.226562 " fill-opacity="1" fill-rule="nonzero"/><path fill="#17407a" d="M 344.609375 234.125 L 319.65625 234.125 C 317.824219 234.125 316.34375 232.640625 316.34375 230.816406 C 316.34375 228.988281 317.824219 227.503906 319.65625 227.503906 L 344.609375 227.503906 C 346.4375 227.503906 347.921875 228.988281 347.921875 230.816406 C 347.921875 232.640625 346.4375 234.125 344.609375 234.125 Z M 344.609375 234.125 " fill-opacity="1" fill-rule="nonzero"/><path fill="#17407a" d="M 344.609375 279.007812 L 319.65625 279.007812 C 317.824219 279.007812 316.34375 277.523438 316.34375 275.695312 C 316.34375 273.871094 317.824219 272.386719 319.65625 272.386719 L 344.609375 272.386719 C 346.4375 272.386719 347.921875 273.871094 347.921875 275.695312 C 347.921875 277.523438 346.4375 279.007812 344.609375 279.007812 Z M 344.609375 279.007812 " fill-opacity="1" fill-rule="nonzero"/><path fill="#17407a" d="M 344.609375 323.886719 L 308.566406 323.886719 C 306.734375 323.886719 305.253906 322.40625 305.253906 320.578125 C 305.253906 318.75 306.734375 317.269531 308.566406 317.269531 L 344.609375 317.269531 C 346.4375 317.269531 347.921875 318.75 347.921875 320.578125 C 347.921875 322.40625 346.4375 323.886719 344.609375 323.886719 Z M 344.609375 323.886719 " fill-opacity="1" fill-rule="nonzero"/><path fill="#ffffff" d="M 3.71875 133.539062 L 314.226562 133.539062 L 314.226562 61.367188 C 314.226562 61.367188 219.679688 57.324219 134.710938 60.824219 C 82.054688 62.992188 26.683594 60.28125 10.398438 65.164062 C 2.941406 67.398438 6.550781 85.246094 6.058594 98.785156 C 5.40625 116.65625 3.71875 133.539062 3.71875 133.539062 Z M 3.71875 133.539062 " fill-opacity="1" fill-rule="nonzero"/><path fill="#ffffff" d="M 9.691406 131.910156 L 318.027344 129.699219 L 320.742188 312.800781 L 314.484375 319.957031 L 18.542969 321.671875 L 6.976562 316.121094 L 9.984375 134.042969 Z M 9.691406 131.910156 " fill-opacity="1" fill-rule="nonzero"/><path fill="#ff8787" d="M 29.957031 131.144531 L 317.628906 129.867188 L 317.628906 85.144531 C 317.628906 85.144531 190.300781 82.402344 99.339844 84.230469 C 68.035156 84.859375 42.085938 81.945312 31.921875 88.800781 C 27.351562 91.878906 29.957031 131.144531 29.957031 131.144531 Z M 29.957031 131.144531 " fill-opacity="1" fill-rule="nonzero"/><path fill="#ffce54" d="M 29.640625 130.027344 L 317.230469 129.386719 L 318.8125 308.328125 L 314.710938 318.039062 L 35.730469 318.722656 C 35.730469 318.722656 28.949219 314.425781 28.816406 311.160156 C 26.453125 254.207031 29.90625 132.109375 29.90625 132.109375 Z M 29.640625 130.027344 " fill-opacity="1" fill-rule="nonzero"/><path fill="#17407a" d="M 83.453125 151.636719 C 68.886719 151.636719 57.039062 139.800781 57.039062 125.253906 L 57.039062 31.257812 C 57.039062 12.664062 72.179688 -2.460938 90.792969 -2.460938 C 109.402344 -2.460938 124.542969 12.664062 124.542969 31.257812 L 124.542969 61.515625 C 124.542969 63.34375 123.0625 64.824219 121.230469 64.824219 C 119.402344 64.824219 117.917969 63.34375 117.917969 61.515625 L 117.917969 31.257812 C 117.917969 16.3125 105.75 4.15625 90.792969 4.15625 C 75.835938 4.15625 63.664062 16.3125 63.664062 31.257812 L 63.664062 125.253906 C 63.664062 136.152344 72.542969 145.019531 83.453125 145.019531 C 94.359375 145.019531 103.238281 136.152344 103.238281 125.253906 L 103.238281 43.921875 C 103.238281 42.097656 104.71875 40.613281 106.550781 40.613281 C 108.378906 40.613281 109.863281 42.097656 109.863281 43.921875 L 109.863281 125.253906 C 109.863281 139.800781 98.015625 151.636719 83.453125 151.636719 Z M 83.453125 151.636719 " fill-opacity="1" fill-rule="nonzero"/><path fill="#17407a" d="M 292.40625 183.226562 L 33.003906 183.226562 C 31.171875 183.226562 29.691406 181.746094 29.691406 179.917969 C 29.691406 178.089844 31.171875 176.609375 33.003906 176.609375 L 292.40625 176.609375 C 294.234375 176.609375 295.71875 178.089844 295.71875 179.917969 C 295.71875 181.746094 294.234375 183.226562 292.40625 183.226562 Z M 292.40625 183.226562 " fill-opacity="1" fill-rule="nonzero"/><path fill="#17407a" d="M 292.40625 228.109375 L 33.003906 228.109375 C 31.171875 228.109375 29.691406 226.625 29.691406 224.800781 C 29.691406 222.972656 31.171875 221.488281 33.003906 221.488281 L 292.40625 221.488281 C 294.234375 221.488281 295.71875 222.972656 295.71875 224.800781 C 295.71875 226.625 294.234375 228.109375 292.40625 228.109375 Z M 292.40625 228.109375 " fill-opacity="1" fill-rule="nonzero"/><path fill="#17407a" d="M 292.40625 272.992188 L 33.003906 272.992188 C 31.171875 272.992188 29.691406 271.507812 29.691406 269.679688 C 29.691406 267.855469 31.171875 266.371094 33.003906 266.371094 L 292.40625 266.371094 C 294.234375 266.371094 295.71875 267.855469 295.71875 269.679688 C 295.71875 271.507812 294.234375 272.992188 292.40625 272.992188 Z M 292.40625 272.992188 " fill-opacity="1" fill-rule="nonzero"/><g clip-path="url(#f98b9cc545)"><path fill="#17407a" d="M 46.832031 132.328125 L 5.753906 132.328125 C 3.921875 132.328125 2.441406 130.847656 2.441406 129.019531 C 2.441406 127.191406 3.921875 125.710938 5.753906 125.710938 L 46.832031 125.710938 C 48.660156 125.710938 50.144531 127.191406 50.144531 129.019531 C 50.144531 130.847656 48.660156 132.328125 46.832031 132.328125 Z M 46.832031 132.328125 " fill-opacity="1" fill-rule="nonzero"/></g><path fill="#17407a" d="M 90.792969 132.328125 L 76.132812 132.328125 C 74.304688 132.328125 72.820312 130.847656 72.820312 129.019531 C 72.820312 127.191406 74.304688 125.710938 76.132812 125.710938 L 90.792969 125.710938 C 92.621094 125.710938 94.105469 127.191406 94.105469 129.019531 C 94.105469 130.847656 92.621094 132.328125 90.792969 132.328125 Z M 90.792969 132.328125 " fill-opacity="1" fill-rule="nonzero"/><path fill="#17407a" d="M 319.65625 132.328125 L 121.320312 132.328125 C 119.492188 132.328125 118.007812 130.847656 118.007812 129.019531 C 118.007812 127.191406 119.492188 125.710938 121.320312 125.710938 L 319.65625 125.710938 C 321.484375 125.710938 322.96875 127.191406 322.96875 129.019531 C 322.96875 130.847656 321.484375 132.328125 319.65625 132.328125 Z M 319.65625 132.328125 " fill-opacity="1" fill-rule="nonzero"/><g clip-path="url(#de78e50eda)"><path fill="#17407a" d="M 308.566406 323.886719 L 16.84375 323.886719 C 8.902344 323.886719 2.441406 317.433594 2.441406 309.5 L 2.441406 72.597656 C 2.441406 64.660156 8.902344 58.207031 16.84375 58.207031 L 46.832031 58.207031 C 48.660156 58.207031 50.144531 59.691406 50.144531 61.515625 C 50.144531 63.34375 48.660156 64.828125 46.832031 64.828125 L 16.84375 64.828125 C 12.554688 64.828125 9.066406 68.3125 9.066406 72.597656 L 9.066406 309.5 C 9.066406 313.785156 12.554688 317.269531 16.84375 317.269531 L 308.566406 317.269531 C 312.851562 317.269531 316.34375 313.785156 316.34375 309.5 L 316.34375 72.597656 C 316.34375 68.3125 312.851562 64.824219 308.566406 64.824219 L 133.117188 64.824219 C 131.289062 64.824219 129.804688 63.34375 129.804688 61.515625 C 129.804688 59.6875 131.289062 58.207031 133.117188 58.207031 L 308.566406 58.207031 C 316.507812 58.207031 322.96875 64.660156 322.96875 72.59375 L 322.96875 309.5 C 322.96875 317.433594 316.507812 323.886719 308.566406 323.886719 Z M 308.566406 323.886719 " fill-opacity="1" fill-rule="nonzero"/></g><path fill="#17407a" d="M 92.9375 64.824219 L 73.324219 64.824219 C 71.496094 64.824219 70.011719 63.34375 70.011719 61.515625 C 70.011719 59.6875 71.496094 58.207031 73.324219 58.207031 L 92.9375 58.207031 C 94.765625 58.207031 96.25 59.6875 96.25 61.515625 C 96.25 63.34375 94.765625 64.824219 92.9375 64.824219 Z M 92.9375 64.824219 " fill-opacity="1" fill-rule="nonzero"/></svg>